<mxfile host="app.diagrams.net" agent="Mozilla/5.0 (Windows NT 10.0; Win64; x64) AppleWebKit/537.36 (KHTML, like Gecko) Chrome/128.0.0.0 Safari/537.36" version="24.7.8">
  <diagram name="Pagina-1" id="EP4X0_UBz4R19k_vQG4n">
    <mxGraphModel dx="1444" dy="842" grid="1" gridSize="10" guides="1" tooltips="1" connect="1" arrows="1" fold="1" page="1" pageScale="1" pageWidth="827" pageHeight="1169" math="0" shadow="0">
      <root>
        <mxCell id="0" />
        <mxCell id="1" parent="0" />
        <mxCell id="6kfx1oL6hog9nXVYrXuV-2" value="Web application" style="text;html=1;align=center;verticalAlign=middle;resizable=0;points=[];autosize=1;strokeColor=none;fillColor=none;" parent="1" vertex="1">
          <mxGeometry x="364" y="210" width="110" height="30" as="geometry" />
        </mxCell>
        <mxCell id="6kfx1oL6hog9nXVYrXuV-4" value="Login using &lt;b&gt;Google Provider&lt;/b&gt;&lt;br&gt;&lt;br&gt;Form data&lt;div&gt;&lt;br&gt;&lt;div&gt;FirstName&lt;/div&gt;&lt;div&gt;Email&lt;br&gt;UserProfilePicture&lt;/div&gt;&lt;/div&gt;" style="whiteSpace=wrap;html=1;aspect=fixed;dashed=1;" parent="1" vertex="1">
          <mxGeometry x="474" y="210" width="130" height="130" as="geometry" />
        </mxCell>
        <mxCell id="6kfx1oL6hog9nXVYrXuV-10" style="edgeStyle=orthogonalEdgeStyle;rounded=0;orthogonalLoop=1;jettySize=auto;html=1;" parent="1" source="6kfx1oL6hog9nXVYrXuV-6" edge="1">
          <mxGeometry relative="1" as="geometry">
            <mxPoint x="270" y="460" as="targetPoint" />
          </mxGeometry>
        </mxCell>
        <mxCell id="MmVu8qTS6iBjCmXcakrQ-2" style="edgeStyle=orthogonalEdgeStyle;rounded=0;orthogonalLoop=1;jettySize=auto;html=1;entryX=0.333;entryY=0;entryDx=0;entryDy=0;entryPerimeter=0;" parent="1" source="6kfx1oL6hog9nXVYrXuV-6" target="MmVu8qTS6iBjCmXcakrQ-1" edge="1">
          <mxGeometry relative="1" as="geometry" />
        </mxCell>
        <mxCell id="6kfx1oL6hog9nXVYrXuV-6" value="App Engine" style="whiteSpace=wrap;html=1;aspect=fixed;" parent="1" vertex="1">
          <mxGeometry x="374" y="260" width="80" height="80" as="geometry" />
        </mxCell>
        <mxCell id="6kfx1oL6hog9nXVYrXuV-11" value="Datastore" style="shape=cylinder3;whiteSpace=wrap;html=1;boundedLbl=1;backgroundOutline=1;size=15;" parent="1" vertex="1">
          <mxGeometry x="240" y="460" width="60" height="80" as="geometry" />
        </mxCell>
        <mxCell id="m5ARnOpKfL_dBytGCmh--3" value="" style="edgeStyle=orthogonalEdgeStyle;rounded=0;orthogonalLoop=1;jettySize=auto;html=1;" parent="1" source="6kfx1oL6hog9nXVYrXuV-16" target="m5ARnOpKfL_dBytGCmh--2" edge="1">
          <mxGeometry relative="1" as="geometry" />
        </mxCell>
        <mxCell id="m5ARnOpKfL_dBytGCmh--8" value="" style="edgeStyle=orthogonalEdgeStyle;rounded=0;orthogonalLoop=1;jettySize=auto;html=1;" parent="1" source="6kfx1oL6hog9nXVYrXuV-16" target="m5ARnOpKfL_dBytGCmh--7" edge="1">
          <mxGeometry relative="1" as="geometry" />
        </mxCell>
        <mxCell id="6kfx1oL6hog9nXVYrXuV-16" value="File Processor Function" style="whiteSpace=wrap;html=1;aspect=fixed;" parent="1" vertex="1">
          <mxGeometry x="384" y="710" width="80" height="80" as="geometry" />
        </mxCell>
        <mxCell id="6kfx1oL6hog9nXVYrXuV-18" value="Reacts at object creating using EventArc" style="text;html=1;align=center;verticalAlign=middle;resizable=0;points=[];autosize=1;strokeColor=none;fillColor=none;" parent="1" vertex="1">
          <mxGeometry x="430" y="620" width="240" height="30" as="geometry" />
        </mxCell>
        <mxCell id="MmVu8qTS6iBjCmXcakrQ-1" value="GCS&lt;br&gt;Bucket" style="shape=cylinder3;whiteSpace=wrap;html=1;boundedLbl=1;backgroundOutline=1;size=15;" parent="1" vertex="1">
          <mxGeometry x="394" y="470" width="60" height="80" as="geometry" />
        </mxCell>
        <mxCell id="m5ARnOpKfL_dBytGCmh--1" style="edgeStyle=orthogonalEdgeStyle;rounded=0;orthogonalLoop=1;jettySize=auto;html=1;entryX=0.5;entryY=1;entryDx=0;entryDy=0;entryPerimeter=0;" parent="1" source="6kfx1oL6hog9nXVYrXuV-16" target="MmVu8qTS6iBjCmXcakrQ-1" edge="1">
          <mxGeometry relative="1" as="geometry" />
        </mxCell>
        <mxCell id="m5ARnOpKfL_dBytGCmh--2" value="Vertex AI Vision" style="whiteSpace=wrap;html=1;aspect=fixed;" parent="1" vertex="1">
          <mxGeometry x="730" y="710" width="80" height="80" as="geometry" />
        </mxCell>
        <mxCell id="m5ARnOpKfL_dBytGCmh--4" value="Gets image description in &lt;b&gt;english&lt;/b&gt;" style="text;html=1;align=center;verticalAlign=middle;resizable=0;points=[];autosize=1;strokeColor=none;fillColor=none;" parent="1" vertex="1">
          <mxGeometry x="500" y="728" width="200" height="30" as="geometry" />
        </mxCell>
        <mxCell id="m5ARnOpKfL_dBytGCmh--6" value="(1)" style="text;html=1;align=center;verticalAlign=middle;resizable=0;points=[];autosize=1;strokeColor=none;fillColor=none;" parent="1" vertex="1">
          <mxGeometry x="460" y="728" width="40" height="30" as="geometry" />
        </mxCell>
        <mxCell id="m5ARnOpKfL_dBytGCmh--7" value="Vertex AI Language" style="whiteSpace=wrap;html=1;aspect=fixed;" parent="1" vertex="1">
          <mxGeometry x="384" y="960" width="80" height="80" as="geometry" />
        </mxCell>
        <mxCell id="m5ARnOpKfL_dBytGCmh--9" value="Translates &lt;b&gt;english content in romanian&lt;/b&gt;" style="text;html=1;align=center;verticalAlign=middle;resizable=0;points=[];autosize=1;strokeColor=none;fillColor=none;" parent="1" vertex="1">
          <mxGeometry x="419" y="870" width="240" height="30" as="geometry" />
        </mxCell>
        <mxCell id="m5ARnOpKfL_dBytGCmh--12" value="(2)" style="text;html=1;align=center;verticalAlign=middle;resizable=0;points=[];autosize=1;strokeColor=none;fillColor=none;" parent="1" vertex="1">
          <mxGeometry x="420" y="808" width="40" height="30" as="geometry" />
        </mxCell>
        <mxCell id="m5ARnOpKfL_dBytGCmh--13" style="edgeStyle=orthogonalEdgeStyle;rounded=0;orthogonalLoop=1;jettySize=auto;html=1;entryX=0.5;entryY=1;entryDx=0;entryDy=0;entryPerimeter=0;" parent="1" source="6kfx1oL6hog9nXVYrXuV-16" target="6kfx1oL6hog9nXVYrXuV-11" edge="1">
          <mxGeometry relative="1" as="geometry" />
        </mxCell>
        <mxCell id="m5ARnOpKfL_dBytGCmh--14" value="(3)" style="text;html=1;align=center;verticalAlign=middle;resizable=0;points=[];autosize=1;strokeColor=none;fillColor=none;" parent="1" vertex="1">
          <mxGeometry x="220" y="710" width="40" height="30" as="geometry" />
        </mxCell>
        <mxCell id="m5ARnOpKfL_dBytGCmh--16" value="&lt;span style=&quot;text-wrap: nowrap;&quot;&gt;Updates user entry with image&lt;br&gt;&amp;nbsp;description in both languages&lt;/span&gt;" style="text;html=1;align=center;verticalAlign=middle;whiteSpace=wrap;rounded=0;" parent="1" vertex="1">
          <mxGeometry x="80" y="600" width="160" height="110" as="geometry" />
        </mxCell>
        <mxCell id="m5ARnOpKfL_dBytGCmh--17" value="(1) Uploads user profile picture" style="text;html=1;align=center;verticalAlign=middle;resizable=0;points=[];autosize=1;strokeColor=none;fillColor=none;" parent="1" vertex="1">
          <mxGeometry x="414" y="380" width="190" height="30" as="geometry" />
        </mxCell>
        <mxCell id="m5ARnOpKfL_dBytGCmh--18" value="Inserts user data: Email and FirstName" style="text;html=1;align=center;verticalAlign=middle;resizable=0;points=[];autosize=1;strokeColor=none;fillColor=none;" parent="1" vertex="1">
          <mxGeometry x="95" y="270" width="230" height="30" as="geometry" />
        </mxCell>
        <mxCell id="m5ARnOpKfL_dBytGCmh--19" value="(2)" style="text;html=1;align=center;verticalAlign=middle;resizable=0;points=[];autosize=1;strokeColor=none;fillColor=none;" parent="1" vertex="1">
          <mxGeometry x="340" y="268" width="40" height="30" as="geometry" />
        </mxCell>
        <mxCell id="m5ARnOpKfL_dBytGCmh--20" value="" style="rounded=0;whiteSpace=wrap;html=1;fillColor=none;dashed=1;dashPattern=8 8;" parent="1" vertex="1">
          <mxGeometry x="50" y="160" width="800" height="400" as="geometry" />
        </mxCell>
        <mxCell id="m5ARnOpKfL_dBytGCmh--21" value="" style="rounded=0;whiteSpace=wrap;html=1;fillColor=none;dashed=1;dashPattern=8 8;" parent="1" vertex="1">
          <mxGeometry x="50" y="590" width="800" height="460" as="geometry" />
        </mxCell>
        <mxCell id="Slad80UjuIRQP_r_jYTL-1" value="Web application" style="text;html=1;align=center;verticalAlign=middle;resizable=0;points=[];autosize=1;strokeColor=none;fillColor=none;" vertex="1" parent="1">
          <mxGeometry x="1394" y="220" width="110" height="30" as="geometry" />
        </mxCell>
        <mxCell id="Slad80UjuIRQP_r_jYTL-2" value="Form data&lt;div&gt;&lt;br&gt;&lt;div&gt;FirstName&lt;/div&gt;&lt;div&gt;Email&lt;br&gt;UserProfilePicture&lt;/div&gt;&lt;/div&gt;" style="whiteSpace=wrap;html=1;aspect=fixed;dashed=1;" vertex="1" parent="1">
          <mxGeometry x="1504" y="220" width="130" height="130" as="geometry" />
        </mxCell>
        <mxCell id="Slad80UjuIRQP_r_jYTL-3" style="edgeStyle=orthogonalEdgeStyle;rounded=0;orthogonalLoop=1;jettySize=auto;html=1;" edge="1" parent="1" source="Slad80UjuIRQP_r_jYTL-5">
          <mxGeometry relative="1" as="geometry">
            <mxPoint x="1300" y="470" as="targetPoint" />
          </mxGeometry>
        </mxCell>
        <mxCell id="Slad80UjuIRQP_r_jYTL-4" style="edgeStyle=orthogonalEdgeStyle;rounded=0;orthogonalLoop=1;jettySize=auto;html=1;entryX=0.333;entryY=0;entryDx=0;entryDy=0;entryPerimeter=0;" edge="1" parent="1" source="Slad80UjuIRQP_r_jYTL-5" target="Slad80UjuIRQP_r_jYTL-11">
          <mxGeometry relative="1" as="geometry" />
        </mxCell>
        <mxCell id="Slad80UjuIRQP_r_jYTL-5" value="App Engine" style="whiteSpace=wrap;html=1;aspect=fixed;" vertex="1" parent="1">
          <mxGeometry x="1404" y="270" width="80" height="80" as="geometry" />
        </mxCell>
        <mxCell id="Slad80UjuIRQP_r_jYTL-6" value="Datastore" style="shape=cylinder3;whiteSpace=wrap;html=1;boundedLbl=1;backgroundOutline=1;size=15;" vertex="1" parent="1">
          <mxGeometry x="1270" y="470" width="60" height="80" as="geometry" />
        </mxCell>
        <mxCell id="Slad80UjuIRQP_r_jYTL-9" value="File Processor Function" style="whiteSpace=wrap;html=1;aspect=fixed;" vertex="1" parent="1">
          <mxGeometry x="1414" y="650" width="80" height="80" as="geometry" />
        </mxCell>
        <mxCell id="Slad80UjuIRQP_r_jYTL-10" value="Reacts at object creating using EventArc" style="text;html=1;align=center;verticalAlign=middle;resizable=0;points=[];autosize=1;strokeColor=none;fillColor=none;" vertex="1" parent="1">
          <mxGeometry x="1444" y="590" width="240" height="30" as="geometry" />
        </mxCell>
        <mxCell id="Slad80UjuIRQP_r_jYTL-11" value="GCS&lt;br&gt;Bucket" style="shape=cylinder3;whiteSpace=wrap;html=1;boundedLbl=1;backgroundOutline=1;size=15;" vertex="1" parent="1">
          <mxGeometry x="1424" y="480" width="60" height="80" as="geometry" />
        </mxCell>
        <mxCell id="Slad80UjuIRQP_r_jYTL-12" style="edgeStyle=orthogonalEdgeStyle;rounded=0;orthogonalLoop=1;jettySize=auto;html=1;entryX=0.5;entryY=1;entryDx=0;entryDy=0;entryPerimeter=0;" edge="1" parent="1" source="Slad80UjuIRQP_r_jYTL-9" target="Slad80UjuIRQP_r_jYTL-11">
          <mxGeometry relative="1" as="geometry" />
        </mxCell>
        <mxCell id="Slad80UjuIRQP_r_jYTL-22" value="(1) Uploads user profile picture" style="text;html=1;align=center;verticalAlign=middle;resizable=0;points=[];autosize=1;strokeColor=none;fillColor=none;" vertex="1" parent="1">
          <mxGeometry x="1444" y="390" width="190" height="30" as="geometry" />
        </mxCell>
        <mxCell id="Slad80UjuIRQP_r_jYTL-23" value="Inserts user data: Email and FirstName" style="text;html=1;align=center;verticalAlign=middle;resizable=0;points=[];autosize=1;strokeColor=none;fillColor=none;" vertex="1" parent="1">
          <mxGeometry x="1125" y="280" width="230" height="30" as="geometry" />
        </mxCell>
        <mxCell id="Slad80UjuIRQP_r_jYTL-24" value="(2)" style="text;html=1;align=center;verticalAlign=middle;resizable=0;points=[];autosize=1;strokeColor=none;fillColor=none;" vertex="1" parent="1">
          <mxGeometry x="1370" y="278" width="40" height="30" as="geometry" />
        </mxCell>
        <mxCell id="Slad80UjuIRQP_r_jYTL-27" value="GCS&lt;br&gt;Bucket" style="shape=cylinder3;whiteSpace=wrap;html=1;boundedLbl=1;backgroundOutline=1;size=15;" vertex="1" parent="1">
          <mxGeometry x="1270" y="650" width="60" height="80" as="geometry" />
        </mxCell>
        <mxCell id="Slad80UjuIRQP_r_jYTL-28" value="Resizes the content" style="whiteSpace=wrap;html=1;aspect=fixed;dashed=1;" vertex="1" parent="1">
          <mxGeometry x="1510" y="645" width="85" height="85" as="geometry" />
        </mxCell>
        <mxCell id="Slad80UjuIRQP_r_jYTL-30" value="Uploads modified version" style="text;html=1;align=center;verticalAlign=middle;resizable=0;points=[];autosize=1;strokeColor=none;fillColor=none;" vertex="1" parent="1">
          <mxGeometry x="1300" y="740" width="160" height="30" as="geometry" />
        </mxCell>
        <mxCell id="Slad80UjuIRQP_r_jYTL-31" style="edgeStyle=orthogonalEdgeStyle;rounded=0;orthogonalLoop=1;jettySize=auto;html=1;entryX=1;entryY=0.5;entryDx=0;entryDy=0;entryPerimeter=0;" edge="1" parent="1" source="Slad80UjuIRQP_r_jYTL-9" target="Slad80UjuIRQP_r_jYTL-27">
          <mxGeometry relative="1" as="geometry" />
        </mxCell>
      </root>
    </mxGraphModel>
  </diagram>
</mxfile>
